<svg xmlns="http://www.w3.org/2000/svg" version="1.1" xmlns:xlink="http://www.w3.org/1999/xlink" xmlns:svgjs="http://svgjs.dev/svgjs" width="100%" height="100%" viewBox="0 0 1000 600"><rect width="1000" height="600" x="0" y="0" fill="#ffffff"/><g><rect width="333.3333333333333" height="333.3333333333333" rx="13.333333333333334" ry="13.333333333333334" y="194.8992091222769" fill="#ef292b" transform="matrix(0.7238950202523339,0,0,0.7238950202523339,0,38.264263952646274)" x="172.67701721191406"/><path d="M391.077646666103 387.4803995917791L391.077646666103 387.4803995917791Q394.391663253473 387.4803995917791 394.391663253473 396.4717068902991L394.391663253473 396.4717068902991Q394.391663253473 401.3612395601893 390.2898886248429 408.31524157958853Q386.1881139962129 415.2420795285996 379.6415730326378 421.0280265213028Q373.0678679986744 426.78680944361787 365.0544672341323 430.508287086812Q357.04106646959013 434.22976473000614 348.13125138223484 434.22976473000614Q339.24860036526775 434.22976473000614 334.25041141382457 428.44381773730294Q329.2793865327696 422.6850348149879 329.2793865327696 415.54088430287067Q329.2793865327696 408.39673379075344 331.61549658616156 399.4054264922332Q333.95160663955346 390.41411919371313 336.69517774876965 380.6350538539328L336.69517774876965 380.6350538539328Q344.1381330351579 354.6118744219621 344.32828152787584 344.0450510409218L344.32828152787584 344.0450510409218Q344.32828152787584 339.56297942685586 343.16022650117986 337.11821309191083Q341.99217147448394 334.6734467569658 338.65099081672565 334.6734467569658L338.65099081672565 334.6734467569658Q332.78355161285754 334.6734467569658 326.12835436772934 341.70894098752984Q319.5003211929894 348.744435218094 313.63288198912124 359.69155558457015L313.63288198912124 359.69155558457015Q300.1323390061468 384.7368284825629 299.3445809648868 408.5868822834713L299.3445809648868 408.5868822834713Q299.7248779503227 411.3304533926875 300.1323390061468 414.0740245019036Q300.5126359915828 416.81759561111966 300.5126359915828 419.9414637057717L300.5126359915828 419.9414637057717Q300.5126359915828 426.1891998950758 294.34639201344356 431.377537339237Q288.2073121056926 436.5658747833981 280.57420832658636 436.5658747833981L280.57420832658636 436.5658747833981Q276.06497264213215 436.5658747833981 273.91901108145817 432.16529538049696Q271.7730495207842 427.7647159775959 271.7730495207842 421.2996672251856L271.7730495207842 421.2996672251856Q271.7730495207842 414.86178254316366 274.70676912271824 403.69734961358125Q277.6404887246523 392.5600807543871 281.14465380474024 380.0374443053907L281.14465380474024 380.0374443053907Q290.54342215908457 346.97877064285586 290.73357065180255 330.7618206210537L290.73357065180255 330.7618206210537Q290.73357065180255 322.53110729340534 288.69626537268164 317.8588871866214Q286.63179602317246 313.1595030094492 280.76435681930434 313.1595030094492L280.76435681930434 313.1595030094492Q270.19753343826403 313.1595030094492 259.84802262032997 328.2083980045555Q249.4713477320076 343.28445707005 241.2677984747475 374.95776314278265L241.2677984747475 374.95776314278265Q239.09467284368523 383.16131240004273 237.92661781698928 389.2460641670171L237.92661781698928 389.2460641670171L237.73646932427133 392.94037773982296Q241.45794696746546 410.95015640725154 241.45794696746546 416.41013455529554L241.45794696746546 416.41013455529554Q241.45794696746546 427.7647159775959 233.44454620292333 431.67634211350804L233.44454620292333 431.67634211350804Q229.7230685597292 433.44200668874606 226.3003956908061 434.99035870087795Q222.87772282188303 436.5658747833981 218.96609668597094 436.5658747833981L218.96609668597094 436.5658747833981Q209.1870313461907 436.5658747833981 209.1870313461907 417.8769943562625Q209.1870313461907 399.2152779995153 219.5365421641248 344.8328090821819L219.5365421641248 344.8328090821819Q223.25801980731893 325.2746784026214 223.25801980731893 322.93856834922946L223.25801980731893 322.93856834922946Q223.25801980731893 307.1019153128632 215.24461904277678 307.1019153128632L215.24461904277678 307.1019153128632Q212.50104793356067 307.1019153128632 210.24643009133356 308.65026732499507Q208.01897631949473 310.22578340751517 205.76435847726762 311.9914479827533Q203.50974063504052 313.72994848760305 201.17363058164858 315.3054645701232Q198.81035645786835 316.88098065264336 195.79514464476944 316.88098065264336Q192.75276876128225 316.88098065264336 192.75276876128225 311.5839869269291L192.75276876128225 311.5839869269291Q192.75276876128225 300.82701505317084 202.72198259378044 293.98166931532467L202.72198259378044 293.98166931532467Q212.31089944084272 286.94617508476057 226.00159091653504 286.94617508476057L226.00159091653504 286.94617508476057Q243.60390852813947 286.94617508476057 246.72777662279148 303.380437669669L246.72777662279148 303.380437669669Q247.51553466405156 308.2699703395591 247.89583164948746 313.72994848760305L247.89583164948746 313.72994848760305Q262.37428116643986 286.56587809932466 284.4858344624985 286.56587809932466L284.4858344624985 286.56587809932466Q308.5260367561249 286.56587809932466 312.0573659066011 309.628173858973L312.0573659066011 309.628173858973Q313.2254209332971 316.28337110410126 313.0352724405791 323.9164748832075L313.0352724405791 323.9164748832075L313.0352724405791 325.4648268953394Q325.7480573822934 307.862509283735 343.16022650117986 307.862509283735L343.16022650117986 307.862509283735Q367.7980383433484 307.862509283735 367.7980383433484 337.60716635889986L367.7980383433484 337.60716635889986Q367.7980383433484 350.510099793332 363.7777559258832 367.81361263066543Q359.78463757880627 385.11712546799873 357.91031672201507 392.6687370359402Q356.06315993561213 400.19318453349325 356.06315993561213 404.29495916212335L356.06315993561213 404.29495916212335Q356.06315993561213 411.7379144485116 361.2514973797733 411.7379144485116Q366.43983482393446 411.7379144485116 385.9979655034949 391.3920257276911L385.9979655034949 391.3920257276911Q389.5021305835829 387.4803995917791 391.077646666103 387.4803995917791ZM442.1189349256782 348.554286725376L442.1189349256782 348.554286725376Q465.20839475571483 348.554286725376 465.20839475571483 356.97514854574234L465.20839475571483 356.97514854574234Q465.20839475571483 361.64736865252627 461.86721409795655 372.40434052628444L461.86721409795655 372.40434052628444Q444.2648964863522 401.55138805290727 426.28228188931183 413.6937275164676L426.28228188931183 413.6937275164676Q434.8932922023961 415.8396890771417 442.7165444742203 415.8396890771417Q450.53979674604454 415.8396890771417 457.27648620233754 411.52060188540537Q464.01317565863064 407.2286787640574 469.12002089162695 401.9588491087314Q474.199702054235 396.6618553830171 477.6223749231581 392.36993226166913Q481.04504779208116 388.0508450699329 483.19100935275515 388.0508450699329L483.19100935275515 388.0508450699329Q485.93458046197134 388.0508450699329 485.93458046197134 395.4938003563212Q485.93458046197134 402.93675564270944 481.615493270235 410.27105464754464Q477.32357014888703 417.60535365237973 469.6904663697808 423.2554802931417L469.6904663697808 423.2554802931417Q452.8759067994365 435.778116742138 429.21600149124595 435.778116742138L429.21600149124595 435.778116742138Q419.62708464418364 435.778116742138 412.59159041361954 433.333350407193Q405.55609618305544 430.88858407224797 402.51372029956826 428.742622511574Q399.471344416081 426.5966609508999 399.471344416081 422.7665270261527Q399.471344416081 418.96355717179375 400.85671200588325 412.7158209824897L400.85671200588325 412.7158209824897Q403.79043160781725 408.5868822834713 410.3369725713924 403.69734961358125Q416.8835135349675 398.8078169436911 423.43005449854263 393.53798728836506Q430.003759532506 388.26815763303904 434.974784413561 382.97116390732475Q439.97297336500424 377.70133425199873 439.97297336500424 372.6216530893907L439.97297336500424 372.6216530893907Q439.97297336500424 370.6658400214347 430.76435350337783 370.6658400214347L430.76435350337783 370.6658400214347L398.49343788210297 372.40434052628444Q393.4137567194949 372.40434052628444 390.9689903845499 369.3891287131856Q388.5242240496048 366.34675282969835 388.5242240496048 362.43512669378634L388.5242240496048 362.43512669378634Q388.5242240496048 353.4438193952662 395.2880775762862 346.59847365742Q402.02476703257923 339.75312791957384 412.9718873990554 339.56297942685586L412.9718873990554 339.56297942685586Q417.6712715762276 339.56297942685586 424.1363203286379 342.6868475215079Q430.57420501065985 345.81071561615994 434.40433893540705 347.1960832059621Q438.2073087897661 348.554286725376 442.1189349256782 348.554286725376Z " fill="#ffffff" transform="matrix(0.7238950202523339,0,0,0.7238950202523339,0,38.264263952646274)"/><path d="M787.6685585313373 387.4803995917791L787.6685585313373 387.4803995917791Q790.9825751187074 387.4803995917791 790.9825751187074 396.4717068902991L790.9825751187074 396.4717068902991Q790.9825751187074 401.3612395601893 786.8808004900773 408.31524157958853Q782.7790258614473 415.2420795285996 776.2324848978722 421.0280265213028Q769.6587798639088 426.78680944361787 761.6453790993667 430.508287086812Q753.6319783348245 434.22976473000614 744.7221632474692 434.22976473000614Q735.8395122305021 434.22976473000614 730.841323279059 428.44381773730294Q725.870298398004 422.6850348149879 725.870298398004 415.54088430287067Q725.870298398004 408.39673379075344 728.2064084513959 399.4054264922332Q730.5425185047878 390.41411919371313 733.286089614004 380.6350538539328L733.286089614004 380.6350538539328Q740.7290449003923 354.6118744219621 740.9191933931102 344.0450510409218L740.9191933931102 344.0450510409218Q740.9191933931102 339.56297942685586 739.7511383664142 337.11821309191083Q738.5830833397183 334.6734467569658 735.24190268196 334.6734467569658L735.24190268196 334.6734467569658Q729.3744634780919 334.6734467569658 722.7192662329637 341.70894098752984Q716.0912330582237 348.744435218094 710.2237938543556 359.69155558457015L710.2237938543556 359.69155558457015Q696.7232508713812 384.7368284825629 695.9354928301211 408.5868822834713L695.9354928301211 408.5868822834713Q696.3157898155571 411.3304533926875 696.7232508713812 414.0740245019036Q697.1035478568172 416.81759561111966 697.1035478568172 419.9414637057717L697.1035478568172 419.9414637057717Q697.1035478568172 426.1891998950758 690.9373038786779 431.377537339237Q684.798223970927 436.5658747833981 677.1651201918207 436.5658747833981L677.1651201918207 436.5658747833981Q672.6558845073665 436.5658747833981 670.5099229466925 432.16529538049696Q668.3639613860186 427.7647159775959 668.3639613860186 421.2996672251856L668.3639613860186 421.2996672251856Q668.3639613860186 414.86178254316366 671.2976809879526 403.69734961358125Q674.2314005898867 392.5600807543871 677.7355656699747 380.0374443053907L677.7355656699747 380.0374443053907Q687.134334024319 346.97877064285586 687.3244825170369 330.7618206210537L687.3244825170369 330.7618206210537Q687.3244825170369 322.53110729340534 685.287177237916 317.8588871866214Q683.2227078884068 313.1595030094492 677.3552686845387 313.1595030094492L677.3552686845387 313.1595030094492Q666.7884453034984 313.1595030094492 656.4389344855643 328.2083980045555Q646.062259597242 343.28445707005 637.8587103399818 374.95776314278265L637.8587103399818 374.95776314278265Q635.6855847089196 383.16131240004273 634.5175296822237 389.2460641670171L634.5175296822237 389.2460641670171L634.3273811895057 392.94037773982296Q638.0488588326998 410.95015640725154 638.0488588326998 416.41013455529554L638.0488588326998 416.41013455529554Q638.0488588326998 427.7647159775959 630.0354580681577 431.67634211350804L630.0354580681577 431.67634211350804Q626.3139804249636 433.44200668874606 622.8913075560405 434.99035870087795Q619.4686346871174 436.5658747833981 615.5570085512053 436.5658747833981L615.5570085512053 436.5658747833981Q605.777943211425 436.5658747833981 605.777943211425 417.8769943562625Q605.777943211425 399.2152779995153 616.1274540293591 344.8328090821819L616.1274540293591 344.8328090821819Q619.8489316725534 325.2746784026214 619.8489316725534 322.93856834922946L619.8489316725534 322.93856834922946Q619.8489316725534 307.1019153128632 611.8355309080112 307.1019153128632L611.8355309080112 307.1019153128632Q609.091959798795 307.1019153128632 606.8373419565679 308.65026732499507Q604.6098881847291 310.22578340751517 602.355270342502 311.9914479827533Q600.1006525002749 313.72994848760305 597.764542446883 315.3054645701232Q595.4012683231027 316.88098065264336 592.3860565100038 316.88098065264336Q589.3436806265166 316.88098065264336 589.3436806265166 311.5839869269291L589.3436806265166 311.5839869269291Q589.3436806265166 300.82701505317084 599.3128944590148 293.98166931532467L599.3128944590148 293.98166931532467Q608.9018113060771 286.94617508476057 622.5925027817694 286.94617508476057L622.5925027817694 286.94617508476057Q640.1948203933739 286.94617508476057 643.3186884880258 303.380437669669L643.3186884880258 303.380437669669Q644.1064465292859 308.2699703395591 644.4867435147219 313.72994848760305L644.4867435147219 313.72994848760305Q658.9651930316743 286.56587809932466 681.0767463277328 286.56587809932466L681.0767463277328 286.56587809932466Q705.1169486213593 286.56587809932466 708.6482777718354 309.628173858973L708.6482777718354 309.628173858973Q709.8163327985314 316.28337110410126 709.6261843058135 323.9164748832075L709.6261843058135 323.9164748832075L709.6261843058135 325.4648268953394Q722.3389692475278 307.862509283735 739.7511383664142 307.862509283735L739.7511383664142 307.862509283735Q764.3889502085827 307.862509283735 764.3889502085827 337.60716635889986L764.3889502085827 337.60716635889986Q764.3889502085827 350.510099793332 760.3686677911176 367.81361263066543Q756.3755494440406 385.11712546799873 754.5012285872494 392.6687370359402Q752.6540718008465 400.19318453349325 752.6540718008465 404.29495916212335L752.6540718008465 404.29495916212335Q752.6540718008465 411.7379144485116 757.8424092450077 411.7379144485116Q763.0307466891688 411.7379144485116 782.5888773687293 391.3920257276911L782.5888773687293 391.3920257276911Q786.0930424488172 387.4803995917791 787.6685585313373 387.4803995917791ZM901.2958649655061 387.4803995917791L901.2958649655061 387.4803995917791Q904.8271941159821 387.4803995917791 904.8271941159821 396.4717068902991L904.8271941159821 396.4717068902991Q904.8271941159821 401.3612395601893 900.6982554169639 408.31524157958853Q896.5964807883338 415.2420795285996 890.0499398247588 421.0280265213028Q883.5033988611837 426.78680944361787 875.4899980966416 430.508287086812Q867.4494332617111 434.22976473000614 859.8434935529931 434.22976473000614L859.8434935529931 434.22976473000614Q849.4668186646709 434.22976473000614 845.9354895141946 416.0298375698596L845.9354895141946 416.0298375698596Q840.8558083515866 424.4506993902259 832.6522590943264 429.8291853271051Q824.421545766678 435.2076712639842 810.6493620798209 435.2076712639842Q796.8500143225755 435.2076712639842 788.4563165725974 426.5966609508999Q780.0354547522311 417.9856506378157 780.2256032449491 405.65316268153725L780.2256032449491 405.65316268153725Q780.2256032449491 372.40434052628444 802.3371565410077 353.2536709025482L802.3371565410077 353.2536709025482Q811.7087608249637 345.2402701380061 819.830817871059 342.6868475215079Q827.9528749171543 340.1334249050097 836.9441822156745 340.1334249050097Q845.9354895141946 340.1334249050097 851.6127802253447 343.28445707005L851.6127802253447 343.28445707005Q854.3563513345609 337.60716635889986 857.8876804850371 337.60716635889986L857.8876804850371 337.60716635889986Q864.7330262228832 337.60716635889986 870.8721061306342 343.5560977739328Q877.0383501087733 349.5321932593541 877.0383501087733 354.8020229146801L877.0383501087733 354.8020229146801Q874.2947789995573 361.2670716670903 869.0249493442312 370.25837896561046L869.0249493442312 370.25837896561046Q867.4494332617111 379.2496862641306 867.4494332617111 395.4938003563212Q867.4494332617111 411.7379144485116 871.5783719607294 411.7379144485116L871.5783719607294 411.7379144485116Q876.6580531233375 411.7379144485116 896.216183802898 391.3920257276911L896.216183802898 391.3920257276911Q899.720348882986 387.4803995917791 901.2958649655061 387.4803995917791ZM808.9923537861359 399.2152779995153L808.9923537861359 399.2152779995153Q808.9923537861359 414.26417299462156 820.1296226453301 414.26417299462156L820.1296226453301 414.26417299462156Q832.0546495457843 414.0740245019036 839.8779018176085 401.55138805290727L839.8779018176085 401.55138805290727Q842.6214729268246 397.2594649315592 844.3871375020627 390.98456467186696L844.3871375020627 390.98456467186696Q844.3871375020627 369.09032393891454 848.2987636379748 353.4438193952662L848.2987636379748 353.4438193952662Q832.4621106016085 356.5676874899181 820.7272321938722 368.7100269534786Q808.9923537861359 380.82520234665077 808.9923537861359 399.2152779995153ZM952.5273017177991 348.554286725376L952.5273017177991 348.554286725376Q975.6167615478357 348.554286725376 975.6167615478357 356.97514854574234L975.6167615478357 356.97514854574234Q975.6167615478357 361.64736865252627 972.3027449604658 372.40434052628444L972.3027449604658 372.40434052628444Q954.7004273488615 401.55138805290727 936.6906486814328 413.6937275164676L936.6906486814328 413.6937275164676Q945.3016589945171 415.8396890771417 953.1249112663412 415.8396890771417Q960.9481635381654 415.8396890771417 967.6848529944584 411.52060188540537Q974.4487065211398 407.2286787640574 979.5283876837478 401.9588491087314Q984.6080688463559 396.6618553830171 988.0307417152791 392.36993226166913Q991.4534145842022 388.0508450699329 993.599376144876 388.0508450699329L993.599376144876 388.0508450699329Q996.3429472540922 388.0508450699329 996.3429472540922 395.4938003563212Q996.3429472540922 402.93675564270944 992.0510241327443 410.27105464754464Q987.7319369410079 417.60535365237973 980.12599723229 423.2554802931417L980.12599723229 423.2554802931417Q963.2842735915574 435.778116742138 939.6243682833668 435.778116742138L939.6243682833668 435.778116742138Q930.0354514363046 435.778116742138 922.9999572057404 433.333350407193Q915.9644629751763 430.88858407224797 912.9220870916891 428.742622511574Q909.9068752785903 426.5966609508999 909.9068752785903 422.7665270261527Q909.9068752785903 418.96355717179375 911.2650787980042 412.7158209824897L911.2650787980042 412.7158209824897Q914.1987983999383 408.5868822834713 920.7453393635134 403.69734961358125Q927.3190443974768 398.8078169436911 933.8655853610518 393.53798728836506Q940.4121263246269 388.26815763303904 945.4103152760702 382.97116390732475Q950.3813401571251 377.70133425199873 950.3813401571251 372.6216530893907L950.3813401571251 372.6216530893907Q950.3813401571251 370.6658400214347 941.1998843658871 370.6658400214347L941.1998843658871 370.6658400214347L908.9289687446123 372.40434052628444Q903.8492875820042 372.40434052628444 901.4045212470592 369.3891287131856Q898.959754912114 366.34675282969835 898.959754912114 362.43512669378634L898.959754912114 362.43512669378634Q898.959754912114 353.4438193952662 905.6964443684071 346.59847365742Q912.4331338247002 339.75312791957384 923.4074182615647 339.56297942685586L923.4074182615647 339.56297942685586Q928.0796383683485 339.56297942685586 934.5446871207588 342.6868475215079Q941.0097358731691 345.81071561615994 944.812705727528 347.1960832059621Q948.615675581887 348.554286725376 952.5273017177991 348.554286725376ZM1051.7033227054035 367.9222689122185L1051.7033227054035 367.9222689122185Q1051.7033227054035 360.88677468165446 1043.3911171665904 360.88677468165446Q1035.0789116277772 360.88677468165446 1027.065510863235 373.68105183453355Q1019.0249460283046 386.502493057801 1017.0691329603486 399.78572347766914L1017.0691329603486 399.78572347766914Q1017.4765940161728 404.29495916212335 1017.8568910016087 408.80419484657756Q1018.2643520574329 413.2862664606435 1018.2643520574329 417.60535365237973L1018.2643520574329 417.60535365237973Q1018.2643520574329 427.9548644703138 1011.4190063195867 431.67634211350804L1011.4190063195867 431.67634211350804Q1008.2679741545464 433.44200668874606 1005.4429108341656 434.99035870087795Q1002.6178475137845 436.5658747833981 998.8963698705904 436.5658747833981Q995.1748922273962 436.5658747833981 992.3498289070153 431.56768583195486Q989.497601516246 426.5966609508999 989.497601516246 416.0298375698596L989.497601516246 416.0298375698596Q989.497601516246 386.502493057801 993.8166887079823 364.7984008175666L993.8166887079823 364.7984008175666Q1000.4447218827222 331.14211760648953 1020.220165125389 292.8136142886287L1020.220165125389 292.8136142886287Q1022.9365721642168 287.5437846333027 1028.233565889931 287.6252768444675Q1033.503395545257 287.7339331260206 1036.8445762030153 294.9595758493027Q1040.1585927903852 302.212382642973 1040.0499365088322 307.1019153128632Q1039.9684442976672 311.9914479827533 1038.5015844967004 316.5821758783723Q1037.0347246957333 321.17290377399144 1034.7801068535061 325.57348317689247Q1032.5254890112792 329.9740625797936 1029.700425690898 334.5647904754126Q1026.8481983001288 339.15551837103175 1024.131791261301 344.45251209674603L1024.131791261301 344.45251209674603L1021.1980716593669 358.52350055787423Q1028.804011368085 345.81071561615994 1041.7341088729054 341.518792494812L1041.7341088729054 341.518792494812Q1046.4063289796893 339.9432764122917 1052.0836196908394 339.9432764122917L1052.0836196908394 339.9432764122917Q1065.3940141810958 339.9432764122917 1072.2393599189422 345.919371897713Q1079.0847056567882 351.86830331274604 1079.0847056567882 362.7339314680574Q1079.0847056567882 373.59955962336875 1076.232478266019 384.7368284825629Q1073.407414945638 395.874097341757 1072.130703637389 400.6821378004823Q1070.8539923291398 405.4630141888193 1070.8539923291398 408.5868822834713Q1070.8539923291398 411.7379144485116 1073.0271179602023 411.7379144485116L1073.0271179602023 411.7379144485116Q1075.9608375621362 411.7379144485116 1080.2527606834842 408.0164368053175Q1084.5446838048324 404.29495916212335 1088.8637709965685 399.8943797592222Q1093.1556941179165 395.4938003563212 1096.7685154795577 391.77232271312704Q1100.4085009115868 388.0508450699329 1101.7667044310006 388.0508450699329L1101.7667044310006 388.0508450699329Q1104.5102755402168 388.0508450699329 1104.5102755402168 394.7060423150611L1104.5102755402168 394.7060423150611Q1104.5102755402168 408.39673379075344 1091.0097325572424 421.10951873246773L1091.0097325572424 421.10951873246773Q1068.32773378303 434.4199132227241 1062.0528335233378 434.4199132227241L1062.0528335233378 434.4199132227241Q1061.4823880451838 434.4199132227241 1061.2922395524658 434.22976473000614L1061.2922395524658 434.22976473000614Q1045.6457350088176 434.22976473000614 1045.6457350088176 409.1844918320134L1045.6457350088176 409.1844918320134Q1045.6457350088176 398.42751995825523 1047.6830402879384 389.4362126597351Q1049.7475096374476 380.4449053612149 1050.7254161714256 376.31596666219656Q1051.7033227054035 372.2141920335666 1051.7033227054035 367.9222689122185ZM1155.551563799792 354.6118744219621L1155.551563799792 351.1077093418742Q1155.551563799792 337.9874633443357 1175.8974525206127 337.9874633443357L1175.8974525206127 337.9874633443357Q1180.9771336832207 337.9874633443357 1182.2538449914696 341.328644002094Q1183.5305562997187 344.6426605894639 1183.5305562997187 351.4880063273101L1183.5305562997187 351.4880063273101Q1183.5305562997187 361.0769231743723 1179.2114691079826 381.20549933208673Q1174.9195459866346 401.3612395601893 1175.1096944793526 408.39673379075344L1175.1096944793526 408.39673379075344Q1175.1096944793526 411.7379144485116 1177.2556560400265 411.7379144485116L1177.2556560400265 411.7379144485116Q1180.1893756419604 411.7379144485116 1184.5084628336967 408.0164368053175Q1188.800385955045 404.29495916212335 1193.0923090763927 399.8943797592222Q1197.411396268129 395.4938003563212 1201.02421762977 391.77232271312704Q1204.6370389914111 388.0508450699329 1206.0224065812133 388.0508450699329L1206.0224065812133 388.0508450699329Q1208.7388136200414 388.0508450699329 1208.7388136200414 394.7060423150611L1208.7388136200414 394.7060423150611Q1208.7388136200414 408.39673379075344 1195.2654347074551 421.10951873246773L1195.2654347074551 421.10951873246773Q1172.5562718628544 434.4199132227241 1166.498684166268 434.4199132227241L1166.498684166268 434.4199132227241Q1165.9282386881143 434.4199132227241 1165.5207776322902 434.22976473000614L1165.5207776322902 434.22976473000614Q1158.10498641629 434.22976473000614 1155.0626105328029 429.3402320601161Q1152.0202346493159 424.4506993902259 1151.2596406784442 417.00774410383764L1151.2596406784442 417.00774410383764Q1147.348014542532 424.23338682711966 1140.5026688046858 429.4217242712809Q1133.6573230668396 434.6100617154421 1124.8561642610373 434.6100617154421L1124.8561642610373 434.6100617154421Q1109.399808210107 434.6100617154421 1101.0876026712938 428.742622511574Q1092.7753971324805 422.87518330770575 1092.7753971324805 411.3304533926875L1092.7753971324805 411.3304533926875Q1092.7753971324805 406.25077223007935 1094.2422569334476 401.9588491087314Q1095.7091167344147 397.63976191699516 1099.0231333217846 391.3920257276911L1099.0231333217846 391.3920257276911L1104.7004240329347 343.28445707005Q1110.7580117295208 338.5850728928778 1122.1125931518213 338.5850728928778L1122.1125931518213 338.5850728928778Q1131.1039004503414 338.5850728928778 1132.2719554770374 350.31995130061415L1132.2719554770374 350.31995130061415Q1133.2498620110155 359.9088681476764 1131.4027052246124 367.4333156452296Q1129.5283843678212 374.95776314278265 1126.4045162731693 386.39383677624784Q1123.2806481785174 397.82991040971314 1123.2806481785174 406.6310692155153L1123.2806481785174 406.6310692155153Q1123.2806481785174 413.6937275164676 1132.0818069843194 413.6937275164676L1132.0818069843194 413.6937275164676Q1141.6707238313818 413.6937275164676 1148.706218061946 396.8520038757351L1148.706218061946 396.8520038757351Q1154.193360280378 383.9490704413028 1156.149173348334 368.1124174049365L1156.149173348334 368.1124174049365Q1155.9318607852279 366.5369013224163 1155.850368574063 364.0921349874713Q1155.7417122925099 361.64736865252627 1155.660220081345 359.3112585991343Q1155.551563799792 356.97514854574234 1155.551563799792 354.6118744219621L1155.551563799792 354.6118744219621Z " fill="#ef292b" transform="matrix(0.7238950202523339,0,0,0.7238950202523339,0,38.264263952646274)"/></g></svg>